<?xml version="1.0" standalone="no"?>
<!DOCTYPE svg PUBLIC "-//W3C//DTD SVG 20010904//EN"
 "http://www.w3.org/TR/2001/REC-SVG-20010904/DTD/svg10.dtd">
<svg version="1.0" xmlns="http://www.w3.org/2000/svg"
 width="500.000000pt" height="500.000000pt" viewBox="0 0 500.000000 500.000000"
 preserveAspectRatio="xMidYMid meet">
<metadata>
Created by potrace 1.16, written by Peter Selinger 2001-2019
</metadata>
<g transform="translate(0.000000,500.000000) scale(0.100000,-0.100000)"
fill="#000000" stroke="none">
<path d="M2272 1800 c-12 -5 -27 -21 -32 -35 -17 -45 -13 -55 25 -55 24 0 35
5 35 15 0 20 19 19 27 -1 4 -10 -1 -22 -10 -29 -22 -16 -22 -61 -1 -73 9 -5
14 -18 12 -32 -4 -30 -28 -39 -28 -11 0 17 -6 21 -35 21 -32 0 -35 -2 -35 -29
0 -64 97 -95 145 -46 29 28 33 79 11 111 -10 13 -11 25 -5 35 5 8 9 33 9 56 0
65 -54 98 -118 73z"/>
<path d="M2636 1787 c-14 -15 -26 -38 -26 -52 0 -22 4 -25 35 -25 24 0 35 5
35 15 0 8 5 15 10 15 6 0 10 -11 10 -25 0 -14 -4 -25 -10 -25 -5 0 -10 -16
-10 -35 0 -25 4 -35 16 -35 11 0 14 -8 12 -27 -4 -33 -24 -41 -33 -14 -5 16
-15 21 -41 21 -37 0 -39 -5 -24 -46 14 -36 38 -53 77 -54 45 0 62 9 78 41 19
35 19 57 1 90 -8 16 -10 32 -5 40 15 24 10 86 -8 108 -10 12 -35 24 -55 27
-30 5 -41 2 -62 -19z"/>
<path d="M2100 1775 c-5 -13 -23 -57 -40 -97 -17 -40 -30 -84 -28 -98 3 -22 8
-25 51 -28 42 -3 47 -5 47 -28 0 -20 5 -24 30 -24 25 0 30 4 30 24 0 14 5 28
10 31 6 3 10 17 10 31 0 13 -4 24 -10 24 -6 0 -10 38 -10 95 l0 95 -40 0 c-34
0 -42 -4 -50 -25z"/>
<path d="M2412 1788 c3 -7 18 -75 33 -150 l28 -138 29 0 c34 0 30 -9 67 163
l29 137 -38 0 -37 0 -7 -81 c-4 -44 -9 -79 -12 -76 -2 2 -8 37 -12 78 l-7 74
-39 3 c-29 3 -37 0 -34 -10z"/>
<path d="M2800 1650 l0 -150 35 0 35 0 0 58 c1 52 2 55 15 38 8 -11 15 -37 15
-58 0 -37 1 -38 35 -38 35 0 35 0 35 45 0 24 -5 56 -12 70 -9 19 -9 28 0 37 7
7 12 32 12 55 0 67 -31 93 -110 93 l-60 0 0 -150z"/>
</g>
</svg>
