<?xml version="1.0" standalone="no"?>
<!DOCTYPE svg PUBLIC "-//W3C//DTD SVG 20010904//EN"
 "http://www.w3.org/TR/2001/REC-SVG-20010904/DTD/svg10.dtd">
<svg version="1.0" xmlns="http://www.w3.org/2000/svg"
 width="512.000000pt" height="312.000000pt" viewBox="0 0 512.000000 512.000000"
 preserveAspectRatio="xMidYMid meet">
<metadata>
Created by potrace 1.16, written by Peter Selinger 2001-2019
</metadata>
<g transform="translate(0.000000,512.000000) scale(0.100000,-0.100000)"
fill="#000000" stroke="none">
<path d="M0 2560 l0 -2560 2560 0 2560 0 0 2560 0 2560 -2560 0 -2560 0 0
-2560z m1958 615 c10 -20 72 -29 72 -12 0 7 9 1 18 -11 10 -13 25 -23 33 -22
25 4 40 0 35 -8 -10 -16 12 -33 50 -39 37 -6 38 -5 24 12 -11 14 -11 17 -1 11
8 -5 17 -3 23 5 6 10 8 7 6 -11 -3 -28 31 -53 59 -43 11 4 14 3 9 -5 -5 -8 0
-12 12 -12 14 0 19 6 17 18 -1 9 0 11 2 5 3 -7 14 -13 26 -13 18 0 19 -2 7
-10 -12 -7 -8 -10 15 -10 17 0 41 -3 55 -6 20 -4 22 -3 10 5 -12 9 -11 11 8
11 13 0 20 -4 17 -10 -7 -11 5 -13 43 -10 13 1 30 -4 38 -10 12 -10 14 -7 15
21 2 32 2 32 6 6 l5 -29 101 6 c56 3 125 6 152 6 38 1 45 3 30 10 -17 7 -14 9
16 9 31 1 37 5 49 36 9 23 16 31 21 23 4 -7 5 -16 3 -20 -3 -4 2 -5 10 -2 9 4
16 1 16 -6 0 -8 -10 -10 -27 -7 -25 5 -26 4 -9 -8 13 -10 25 -11 47 -3 27 9
28 12 13 23 -12 8 -14 14 -6 19 7 4 12 3 12 -3 0 -7 8 -7 26 -1 16 7 32 7 44
0 22 -12 30 -13 29 -2 -4 21 3 32 19 30 37 -3 52 3 53 20 0 10 3 12 6 5 3 -8
14 -11 29 -7 13 3 24 2 24 -4 0 -11 -173 -80 -295 -117 -49 -15 -106 -35 -126
-45 -43 -22 -96 -81 -115 -126 -15 -35 -19 -131 -6 -150 4 -7 57 -21 119 -33
125 -24 233 -57 325 -100 70 -32 153 -89 144 -99 -4 -3 -12 0 -18 6 -7 7 -21
12 -31 12 -13 0 -17 5 -13 15 5 14 -20 25 -104 41 -24 5 -31 4 -26 -4 4 -7 3
-12 -2 -12 -6 0 -12 7 -16 15 -3 8 -13 15 -21 15 -9 0 -13 -4 -10 -10 3 -5 2
-10 -3 -10 -15 0 -23 30 -9 31 9 0 9 2 -1 6 -6 2 -10 8 -7 13 3 4 -2 10 -9 13
-10 4 -13 0 -11 -14 2 -10 -1 -19 -8 -19 -8 0 -8 -3 1 -12 15 -15 15 -28 0
-28 -6 0 -9 3 -5 6 3 4 -4 15 -16 25 -21 17 -21 18 -3 19 11 0 16 3 13 6 -4 4
-20 1 -37 -6 -16 -7 -42 -12 -56 -12 -19 0 -22 -3 -13 -9 10 -6 11 -9 2 -9 -7
0 -13 -6 -13 -14 0 -8 -4 -17 -9 -21 -6 -3 -8 4 -6 15 2 11 -1 20 -6 20 -6 0
-7 5 -3 12 9 15 -13 2 -45 -26 l-24 -21 12 22 c16 32 14 36 -19 31 -22 -3 -29
-1 -26 8 7 19 -27 26 -60 13 -40 -17 -54 -19 -54 -8 0 5 7 9 16 9 8 0 24 5 35
11 16 8 18 13 8 25 -13 15 -48 10 -61 -10 -5 -7 -8 -4 -8 7 0 9 6 17 14 17 17
0 31 18 21 28 -3 3 -10 0 -15 -8 -8 -13 -10 -12 -10 3 0 30 -19 18 -23 -15 -2
-18 -4 3 -4 47 0 44 1 72 4 62 8 -32 24 -6 18 31 -5 29 -4 34 5 22 9 -12 10
-10 6 13 -4 17 -2 27 5 27 6 0 9 7 5 15 -3 8 -2 15 2 15 5 0 17 7 28 15 18 14
18 14 -5 10 -28 -5 -17 10 14 19 11 3 6 4 -11 2 -20 -1 -30 2 -28 9 3 6 18 10
35 9 17 -1 28 1 24 4 -3 4 -21 7 -39 9 -26 1 -36 -4 -45 -20 l-12 -22 5 23 c3
14 -1 22 -10 22 -8 0 -14 -5 -14 -11 0 -8 -4 -8 -15 1 -11 9 -21 9 -42 1 -20
-8 -22 -10 -5 -7 12 2 22 0 22 -6 0 -13 -43 -6 -47 9 -2 6 4 13 14 16 12 3 13
5 3 6 -30 2 -61 -41 -32 -45 6 -1 20 -3 30 -4 10 -1 5 -5 -13 -10 -27 -7 -28
-8 -9 -15 16 -5 20 -12 16 -27 -4 -15 -2 -19 7 -13 10 5 11 2 6 -14 -3 -11 -3
-26 2 -33 5 -9 10 -3 14 17 l7 30 1 -27 c1 -17 7 -28 15 -28 10 0 15 -17 18
-60 1 -33 0 -60 -4 -60 -4 0 -8 23 -10 52 -2 30 -8 53 -15 56 -13 4 -18 -29
-6 -41 3 -4 7 -20 7 -37 1 -22 -4 -30 -16 -30 -12 0 -16 -6 -12 -17 5 -17 5
-17 -6 0 -16 24 -33 22 -20 -3 6 -11 17 -20 25 -20 8 0 15 -4 15 -10 0 -6 -9
-6 -26 0 -37 15 -64 12 -64 -6 0 -9 5 -12 12 -8 7 4 8 3 4 -5 -4 -6 -16 -9
-27 -6 -10 4 -26 2 -36 -3 -15 -9 -12 -13 18 -31 19 -11 28 -21 21 -21 -8 0
-27 9 -43 21 -24 17 -32 19 -45 8 -10 -8 -12 -15 -4 -23 5 -5 10 -13 10 -18 0
-4 -11 4 -25 17 -26 27 -40 31 -50 15 -10 -16 -25 -12 -19 5 4 8 2 15 -4 15
-6 0 -17 3 -25 6 -17 6 -70 -43 -62 -57 4 -5 4 -9 1 -9 -2 0 -12 -3 -22 -7
-15 -6 -16 -4 -6 8 64 77 69 89 33 89 -13 0 -13 -2 -2 -9 20 -13 -3 -23 -31
-12 -12 6 -18 10 -12 10 6 1 11 7 11 15 0 8 -6 12 -14 9 -7 -3 -13 -16 -13
-29 0 -13 -5 -24 -11 -24 -5 0 -7 5 -4 10 3 6 1 10 -5 10 -6 0 -8 5 -4 11 4 7
1 10 -7 7 -8 -3 -15 -10 -15 -16 -1 -7 -2 -16 -3 -22 0 -5 -9 -10 -18 -10 -15
0 -16 2 -3 10 12 8 11 10 -6 10 -12 0 -27 -7 -34 -15 -14 -17 -60 -21 -60 -5
0 5 -7 7 -16 3 -13 -5 -13 -7 -2 -14 10 -7 10 -9 1 -9 -22 0 -27 -2 -47 -12
-15 -8 -16 -12 -5 -19 11 -7 9 -9 -7 -9 -41 0 -20 30 45 64 36 19 112 48 169
65 90 27 145 36 319 57 35 4 43 9 52 36 25 72 7 147 -50 212 -47 53 -70 66
-222 126 -68 27 -103 46 -95 51 7 5 0 7 -18 7 -30 -1 -134 49 -134 65 0 13 29
7 38 -8z"/>
</g>
</svg>



